#!OML:ASF F:\VICON\USERDATA\INSTALL\rory3\rory3.ASF
:FULLY-SPECIFIED
:DEGREES
532
root 0.506936 17.6016 33.903 -1.08431 6.52981 -1.65028
lowerback 6.72401 -0.516982 -3.34435
upperback 0.803535 -0.807171 4.00149
thorax -2.83699 -0.345929 6.13374
lowerneck -17.1174 -5.70321 -13.6539
upperneck 34.8309 -5.89566 5.53305
head 15.8705 -3.53007 3.65491
rclavicle -1.33683e-014 0
rhumerus -39.6767 -22.7088 -65.1806
rradius 23.0183
rwrist -5.3815
rhand -9.64049 18.0552
rfingers 7.12502
rthumb 16.3298 -11.2773
lclavicle -1.33683e-014 0
lhumerus -35.9172 5.35536 83.7568
lradius 33.8603
lwrist -7.28327
lhand 1.24442 31.7489
lfingers 7.12502
lthumb 26.7818 59.8729
rfemur -12.3159 -0.922682 25.0032
rtibia 28.9164
rfoot -12.1608 -5.25686
rtoes 23.8898
lfemur -10.7632 -2.4006 -16.0611
ltibia 65.4726
lfoot 14.7352 -7.17989
ltoes -2.6142
533
root 0.445071 17.5988 34.0826 -1.3005 5.40632 -3.36493
lowerback 6.33029 -0.133239 -2.36977
upperback 1.05443 -0.209136 4.59527
thorax -2.43617 -0.0687124 6.14141
lowerneck -16.6714 -5.83019 -14.2136
upperneck 34.4068 -6.16327 6.0977
head 15.6445 -3.63481 3.93995
rclavicle -9.39258e-015 -8.74653e-015
rhumerus -38.7706 -22.5722 -65.5117
rradius 22.7896
rwrist -4.93299
rhand -9.57003 18.0959
rfingers 7.12502
rthumb 16.3977 -11.231
lclavicle -9.39258e-015 -8.74653e-015
lhumerus -35.8742 5.73522 83.7905
lradius 33.6666
lwrist -7.6034
lhand 0.998521 31.2619
lfingers 7.12502
lthumb 26.5464 59.4217
rfemur -11.3321 1.76871 27.4636
rtibia 28.3076
rfoot -12.4514 -6.97453
rtoes 23.9682
lfemur -12.2639 -0.55455 -13.4007
ltibia 66.8825
lfoot 12.5208 -7.70156
ltoes -4.85088
534
root 0.453912 17.6036 34.2038 -0.809838 5.33145 -3.53648
lowerback 6.35073 -0.0740786 -1.91733
upperback 0.733901 -0.0921156 4.53101
thorax -2.79556 -0.000643719 5.80666
lowerneck -15.349 -5.40748 -14.4375
upperneck 33.746 -5.81108 6.56466
head 14.9925 -3.4539 4.24186
rclavicle -2.48481e-016 -3.02153e-014
rhumerus -38.5264 -21.8852 -66.0246
rradius 23.4873
rwrist -5.08019
rhand -9.54261 17.5145
rfingers 7.12502
rthumb 16.4241 -11.8102
lclavicle -2.48481e-016 -3.02153e-014
lhumerus -36.244 5.89723 83.8002
lradius 33.599
lwrist -7.5523
lhand 0.999945 31.3775
lfingers 7.12502
lthumb 26.5478 59.5371
rfemur -11.2379 1.43571 27.6553
rtibia 27.9551
rfoot -12.6566 -6.60896
rtoes 23.7677
lfemur -14.3996 -0.112445 -13.3095
ltibia 67.9719
lfoot 11.3621 -6.95749
ltoes -3.67473
535
root 0.448615 17.6069 34.3973 -1.10792 5.18293 -3.31756
lowerback 6.29155 0.010907 -2.14253
upperback 0.71295 0.00310647 4.43578
thorax -2.79499 0.0493254 5.82645
lowerneck -15.5572 -5.48073 -13.882
upperneck 34.4548 -5.74022 5.60959
head 15.3128 -3.4949 3.7666
rclavicle -3.926e-015 -2.3059e-014
rhumerus -38.452 -21.4683 -66.1533
rradius 23.7447
rwrist -4.94791
rhand -9.56321 17.4747
rfingers 7.12502
rthumb 16.4042 -11.8517
lclavicle -3.926e-015 -2.3059e-014
lhumerus -36.9606 6.04577 83.8236
lradius 33.7918
lwrist -7.3203
lhand 1.27713 32.2432
lfingers 7.12502
lthumb 26.8131 60.3624
rfemur -9.93284 1.20713 27.5073
rtibia 27.5385
rfoot -13.1029 -6.36004
rtoes 23.719
lfemur -15.0697 0.367185 -13.6287
ltibia 68.6692
lfoot 10.5614 -6.70713
ltoes 0.735258
536
root 0.489777 17.6134 34.5485 -1.05937 5.51756 -2.28739
lowerback 5.80894 -0.00911337 -2.64928
upperback 1.40845 -0.0796001 4.09465
thorax -1.79429 -0.0255038 5.75174
lowerneck -17.7747 -5.83862 -13.7575
upperneck 35.1126 -5.85697 5.28144
head 16.163 -3.5575 3.56848
rclavicle -1.88845e-014 -4.77083e-015
rhumerus -36.61 -21.7166 -66.741
rradius 23.8529
rwrist -4.96612
rhand -9.62181 17.8457
rfingers 7.12502
rthumb 16.3478 -11.4853
lclavicle -1.88845e-014 -4.77083e-015
lhumerus -35.8631 6.51939 84.1602
lradius 33.8529
lwrist -7.33984
lhand 1.34805 32.6883
lfingers 7.12502
lthumb 26.8809 60.7971
rfemur -9.17956 -0.939934 26.0223
rtibia 27.3957
rfoot -13.4751 -4.52959
rtoes 23.655
lfemur -16.1867 0.146163 -15.3688
ltibia 69.1173
lfoot 10.3646 -5.94091
ltoes 6.76272
